# xmcd
#
# Track frame offsets: 
#        150
#        17942
#        39056
#        53717
#        70329
#        84033
#        98858
#        116909
#        139019
#        153087
#        167798
#        186497
#        207209
#        225271
#        243092
#        264217
#        284748
#        305927
#
# Disc length: 4400 seconds
#
# Revision: 0
# Processed by: cddbd v1.5.1PL2 Copyright (c) Steve Scherf et al.
# Submitted via: ExactAudioCopy v0.95b4
#
DISCID=f0112e12
DTITLE=Various Artist - No Sweat Summer 2005
DYEAR=2005
DGENRE=R&B
TTITLE0=Akon - Lonely
TTITLE1=Snoop Dogg Ft. Pharrell - Let's Get Blown
TTITLE2=Daddy Yankee - Gasolina
TTITLE3=Destiny's Child - Girl
TTITLE4=Ying Yang Twins - Wait (The Whisper Song)
TTITLE5=Will Smith - Switch
TTITLE6=Amerie - 1 Thing
TTITLE7=Jadakiss Ft. Mariah Carey - U Make Me Wanna
TTITLE8=Bizarre - Rockstar
TTITLE9=Gio - Fantasy Girl
TTITLE10=Nitty - Nasty Girl
TTITLE11=Ludacris - Number One Spot
TTITLE12=Kanye West - Diamonds From Sierra Leone
TTITLE13=Bobby Valentino - Slow Down
TTITLE14=Omarion - "O"
TTITLE15=Jennifer Lopez Ft. Fat Joe - Hold You Down
TTITLE16=John Legend - Ordinary People
TTITLE17=Lil Jon and The East Side Boyz Ft. Ice Cube - Roll Call
EXTD=
EXTT0=
EXTT1=
EXTT2=
EXTT3=
EXTT4=
EXTT5=
EXTT6=
EXTT7=
EXTT8=
EXTT9=
EXTT10=
EXTT11=
EXTT12=
EXTT13=
EXTT14=
EXTT15=
EXTT16=
EXTT17=
PLAYORDER=
